<svg width="85" height="90" viewBox="0 0 85 90" fill="none" xmlns="http://www.w3.org/2000/svg">
<path d="M83.0419 0.421214C83.4493 0.673182 83.7856 1.02503 84.0189 1.44341C84.2522 1.86178 84.3748 2.33281 84.375 2.81184V87.1868C84.375 87.9328 84.0787 88.6481 83.5512 89.1756C83.0238 89.703 82.3084 89.9993 81.5625 89.9993H64.6875C63.9416 89.9993 63.2262 89.703 62.6988 89.1756C62.1713 88.6481 61.875 87.9328 61.875 87.1868V78.7493H56.25V87.1868C56.25 87.9328 55.9537 88.6481 55.4262 89.1756C54.8988 89.703 54.1834 89.9993 53.4375 89.9993H2.8125C2.06658 89.9993 1.35121 89.703 0.823762 89.1756C0.296316 88.6481 0 87.9328 0 87.1868V56.2493C0.000448013 55.6593 0.186458 55.0843 0.531703 54.6058C0.876948 54.1273 1.36394 53.7695 1.92375 53.5831L33.75 42.9743V25.3118C33.75 24.79 33.8952 24.2784 34.1694 23.8343C34.4436 23.3903 34.8359 23.0313 35.3025 22.7975L80.3025 0.297464C80.7317 0.0826215 81.2088 -0.0187954 81.6883 0.00286583C82.1678 0.0245271 82.6338 0.168546 83.0419 0.421214ZM33.75 48.9031L5.625 58.2743V84.3743H33.75V48.9031ZM39.375 84.3743H50.625V75.9368C50.625 75.1909 50.9213 74.4755 51.4488 73.9481C51.9762 73.4207 52.6916 73.1243 53.4375 73.1243H64.6875C65.4334 73.1243 66.1488 73.4207 66.6762 73.9481C67.2037 74.4755 67.5 75.1909 67.5 75.9368V84.3743H78.75V7.36246L39.375 27.05V84.3743Z" fill="#F0070A"/>
<path d="M11.25 61.875H16.875V67.5H11.25V61.875ZM22.5 61.875H28.125V67.5H22.5V61.875ZM11.25 73.125H16.875V78.75H11.25V73.125ZM22.5 73.125H28.125V78.75H22.5V73.125ZM45 50.625H50.625V56.25H45V50.625ZM56.25 50.625H61.875V56.25H56.25V50.625ZM45 61.875H50.625V67.5H45V61.875ZM56.25 61.875H61.875V67.5H56.25V61.875ZM67.5 50.625H73.125V56.25H67.5V50.625ZM67.5 61.875H73.125V67.5H67.5V61.875ZM45 39.375H50.625V45H45V39.375ZM56.25 39.375H61.875V45H56.25V39.375ZM67.5 39.375H73.125V45H67.5V39.375ZM45 28.125H50.625V33.75H45V28.125ZM56.25 28.125H61.875V33.75H56.25V28.125ZM67.5 28.125H73.125V33.75H67.5V28.125ZM67.5 16.875H73.125V22.5H67.5V16.875Z" fill="#F0070A"/>
</svg>
